<?xml version="1.0" encoding="UTF-8" standalone="no"?>
<svg
   xmlns:dc="http://purl.org/dc/elements/1.1/"
   xmlns:cc="http://creativecommons.org/ns#"
   xmlns:rdf="http://www.w3.org/1999/02/22-rdf-syntax-ns#"
   xmlns:svg="http://www.w3.org/2000/svg"
   xmlns="http://www.w3.org/2000/svg"
   xmlns:sodipodi="http://sodipodi.sourceforge.net/DTD/sodipodi-0.dtd"
   xmlns:inkscape="http://www.inkscape.org/namespaces/inkscape"
   version="1.1"
   id="svg2"
   xml:space="preserve"
   width="3029.3333"
   height="2496"
   viewBox="0 0 3029.3333 2496"
   sodipodi:docname="Hiphop vector 1.ai"><metadata
     id="metadata8"><rdf:RDF><cc:Work
         rdf:about=""><dc:format>image/svg+xml</dc:format><dc:type
           rdf:resource="http://purl.org/dc/dcmitype/StillImage" /></cc:Work></rdf:RDF></metadata><defs
     id="defs6"><clipPath
       clipPathUnits="userSpaceOnUse"
       id="clipPath18"><path
         d="M 0,1872 H 2272 V 0 H 0 Z"
         id="path16" /></clipPath></defs><sodipodi:namedview
     pagecolor="#ffffff"
     bordercolor="#666666"
     borderopacity="1"
     objecttolerance="10"
     gridtolerance="10"
     guidetolerance="10"
     inkscape:pageopacity="0"
     inkscape:pageshadow="2"
     inkscape:window-width="640"
     inkscape:window-height="480"
     id="namedview4" /><g
     id="g10"
     inkscape:groupmode="layer"
     inkscape:label="Hiphop vector 1"
     transform="matrix(1.3333333,0,0,-1.3333333,0,2496)"><g
       id="g12"><g
         id="g14"
         clip-path="url(#clipPath18)"><g
           id="g20"
           transform="translate(1793.7422,448.9521)"><path
             d="m 0,0 c -2.75,0 -5.5,0.458 -8.251,0.916 -17.42,4.584 -27.504,22.462 -22.92,39.881 86.179,321.336 88.471,757.728 -101.764,1009.846 -100.388,132.935 -244.784,201.694 -429.058,204.445 -137.519,1.833 -259.452,-36.213 -363.508,-113.224 -83.887,-62.342 -156.313,-150.354 -215.447,-261.744 -101.763,-191.61 -128.35,-385.97 -128.809,-388.262 -2.292,-17.878 -18.794,-30.254 -36.672,-27.962 -17.877,2.292 -30.254,18.794 -27.962,36.672 0.917,8.251 28.421,208.112 135.685,410.265 63.718,119.641 142.561,214.987 234.241,283.288 115.516,85.72 251.201,128.351 402.93,126.059 205.362,-2.75 366.717,-80.22 479.94,-230.115 C 13.293,964.465 71.51,787.523 86.179,578.495 99.014,399.263 79.303,202.61 31.171,24.294 27.504,9.625 14.21,0 0,0"
             style="fill:#b3b1b1;fill-opacity:1;fill-rule:nonzero;stroke:none"
             id="path22" /></g><g
           id="g24"
           transform="translate(294.7871,664.8555)"><path
             d="m 0,0 16.044,357.091 c 1.833,40.798 35.297,73.344 76.552,73.344 9.627,0 19.253,-1.834 27.963,-5.501 l 91.679,-36.214 c 38.047,-15.127 55.007,-59.133 37.129,-95.804 L 93.971,-23.836 C 83.428,-44.923 60.05,-55.924 37.13,-49.965 14.21,-44.005 -0.917,-22.92 0,0"
             style="fill:#c9c9c9;fill-opacity:1;fill-rule:nonzero;stroke:none"
             id="path26" /></g><g
           id="g28"
           transform="translate(348.8779,664.8555)"><path
             d="m 0,0 16.044,357.091 c 1.375,31.171 21.544,57.758 49.507,68.301 -8.71,3.209 -17.878,5.043 -27.046,5.043 -40.797,0 -74.718,-32.088 -76.552,-73.344 L -54.091,0 c -0.916,-23.377 14.211,-44.005 36.672,-49.965 13.752,-3.667 27.962,-0.917 39.422,6.418 C 7.793,-33.921 -0.917,-17.877 0,0"
             style="fill:#b3b1b1;fill-opacity:1;fill-rule:nonzero;stroke:none"
             id="path30" /></g><g
           id="g32"
           transform="translate(182.8306,661.8369)"><path
             d="M 0,0 C 59.07,205.867 256.683,329.795 441.379,276.799 626.076,223.804 727.917,13.953 668.847,-191.914 609.776,-397.781 412.164,-521.709 227.467,-468.713 42.77,-415.718 -59.07,-205.867 0,0"
             style="fill:#ffdfa2;fill-opacity:1;fill-rule:nonzero;stroke:none"
             id="path34" /></g><g
           id="g36"
           transform="translate(286.5361,627.7266)"><path
             d="m 0,0 c 6.417,22.461 14.668,44.005 24.753,64.633 12.835,27.046 1.375,59.592 -25.67,72.427 -26.587,12.377 -58.215,1.834 -71.509,-24.295 -12.377,-24.295 -22.92,-50.882 -31.171,-78.386 -41.715,-145.312 -3.209,-291.998 87.553,-385.052 9.627,-9.627 24.295,-12.836 37.13,-7.794 20.17,7.794 28.42,32.088 16.96,50.882 C -14.668,-222.322 -31.629,-110.475 0,0"
             style="fill:#ffe9c7;fill-opacity:1;fill-rule:nonzero;stroke:none"
             id="path38" /></g><g
           id="g40"
           transform="translate(286.272,627.7393)"><path
             d="M 0,0 C 56.277,196.134 244.524,314.208 420.46,263.727 596.397,213.244 693.4,13.323 637.123,-182.811 580.845,-378.945 392.599,-497.019 216.662,-446.537 40.726,-396.056 -56.277,-196.134 0,0"
             style="fill:#e5e521;fill-opacity:1;fill-rule:nonzero;stroke:none"
             id="path42" /></g><g
           id="g44"
           transform="translate(455.2261,580.0527)"><path
             d="m 0,0 c 11.918,40.798 29.795,77.927 52.257,109.557 29.796,41.714 14.21,100.388 -32.088,121.933 -31.629,14.668 -69.217,8.251 -93.512,-16.961 -42.631,-44.923 -76.094,-101.305 -94.888,-166.856 -38.506,-134.769 -5.042,-270.912 76.552,-359.841 23.378,-25.67 62.8,-28.879 89.846,-7.334 24.752,19.711 33.004,54.091 18.793,82.511 C -16.502,-172.356 -24.753,-86.179 0,0"
             style="fill:#faef65;fill-opacity:1;fill-rule:nonzero;stroke:none"
             id="path46" /></g><g
           id="g48"
           transform="translate(455.3477,580.3525)"><path
             d="M 0,0 C 44.268,154.279 177.013,251.555 296.494,217.272 415.975,182.989 476.947,30.13 432.679,-124.149 388.412,-278.429 255.667,-375.705 136.186,-341.422 16.705,-307.139 -44.268,-154.279 0,0"
             style="fill:#c2bd42;fill-opacity:1;fill-rule:nonzero;stroke:none"
             id="path50" /></g><g
           id="g52"
           transform="translate(523.6875,557.7461)"><path
             d="M 0,0 C 34.492,120.211 138.008,195.983 231.208,169.24 324.408,142.499 372,23.369 337.507,-96.842 303.015,-217.053 199.5,-292.824 106.299,-266.082 13.099,-239.34 -34.493,-120.211 0,0"
             style="fill:#a39b38;fill-opacity:1;fill-rule:nonzero;stroke:none"
             id="path54" /></g><g
           id="g56"
           transform="translate(771.9775,460.8691)"><path
             d="m 0,0 c 33.921,117.809 -11.001,234.241 -100.389,264.495 -65.092,-20.628 -123.308,-82.97 -147.603,-167.772 -33.922,-117.808 11.001,-234.241 100.388,-264.495 C -82.511,-147.145 -24.295,-84.344 0,0"
             style="fill:#8c8333;fill-opacity:1;fill-rule:nonzero;stroke:none"
             id="path58" /></g><g
           id="g60"
           transform="translate(1096.6963,583.9795)"><path
             d="M 0,0 C 68.077,237.259 295.677,380.124 508.358,319.099 721.04,258.073 838.264,16.267 770.187,-220.992 702.109,-458.251 474.51,-601.116 261.828,-540.091 49.147,-479.065 -68.078,-237.259 0,0"
             style="fill:#e5e521;fill-opacity:1;fill-rule:nonzero;stroke:none"
             id="path62" /></g><g
           id="g64"
           transform="translate(1216.1631,544.2979)"><path
             d="m 0,0 c 7.335,26.129 16.961,50.882 28.421,74.261 15.127,31.17 1.375,68.301 -29.796,83.427 -30.254,14.21 -66.926,2.292 -82.511,-27.961 -14.669,-28.421 -26.588,-58.217 -35.756,-90.305 -48.131,-167.315 -4.125,-336.462 100.847,-443.269 11.002,-11.46 27.963,-14.669 42.632,-9.168 23.378,9.168 32.546,37.13 19.252,58.217 C -16.961,-256.243 -36.672,-127.434 0,0"
             style="fill:#faef65;fill-opacity:1;fill-rule:nonzero;stroke:none"
             id="path66" /></g><g
           id="g68"
           transform="translate(1216.1973,544.4941)"><path
             d="M 0,0 C 64.865,226.065 281.773,362.178 484.478,304.015 687.182,245.853 798.922,15.44 734.057,-210.625 669.191,-436.689 452.283,-572.802 249.579,-514.639 46.875,-456.477 -64.865,-226.064 0,0"
             style="fill:#ffdfa2;fill-opacity:1;fill-rule:nonzero;stroke:none"
             id="path70" /></g><g
           id="g72"
           transform="translate(1410.5234,489.749)"><path
             d="m 0,0 c 13.752,47.214 34.379,89.845 60.05,126.059 34.38,48.131 16.502,115.515 -37.13,140.727 -36.672,16.961 -79.762,9.168 -107.724,-19.711 -49.048,-51.341 -87.552,-116.891 -109.556,-192.068 -44.464,-154.938 -5.959,-312.167 88.011,-414.39 27.046,-29.338 71.968,-33.463 103.598,-8.251 28.42,22.461 38.047,62.342 21.545,94.888 C -19.253,-198.486 -28.421,-99.472 0,0"
             style="fill:#ffe9c7;fill-opacity:1;fill-rule:nonzero;stroke:none"
             id="path74" /></g><g
           id="g76"
           transform="translate(1410.2354,489.5342)"><path
             d="M 0,0 C 51.041,177.883 204.071,290.049 341.803,250.529 479.535,211.009 549.812,34.77 498.771,-143.113 447.73,-320.997 294.7,-433.163 156.969,-393.644 19.237,-354.123 -51.04,-177.884 0,0"
             style="fill:#e5c38b;fill-opacity:1;fill-rule:nonzero;stroke:none"
             id="path78" /></g><g
           id="g80"
           transform="translate(1489.4189,463.9092)"><path
             d="M 0,0 C 39.799,138.705 159.057,226.186 266.371,195.394 373.685,164.602 428.416,27.197 388.617,-111.508 348.818,-250.213 229.56,-337.693 122.246,-306.902 14.932,-276.11 -39.8,-138.705 0,0"
             style="fill:#e5e3e2;fill-opacity:1;fill-rule:nonzero;stroke:none"
             id="path82" /></g><g
           id="g84"
           transform="translate(1709.3975,536.0469)"><path
             d="m 0,0 c 70.633,0 127.893,-57.26 127.893,-127.893 0,-70.632 -57.26,-127.892 -127.893,-127.892 -70.633,0 -127.893,57.26 -127.893,127.892 C -127.893,-57.26 -70.633,0 0,0"
             style="fill:#c6c6c5;fill-opacity:1;fill-rule:nonzero;stroke:none"
             id="path86" /></g><g
           id="g88"
           transform="translate(1662.1826,421.4482)"><path
             d="m 0,0 18.336,411.181 c 2.292,47.215 40.797,84.344 88.012,84.344 11.001,0 22.003,-2.292 32.087,-5.959 l 105.431,-41.713 c 44.006,-17.419 63.717,-68.301 42.631,-110.473 L 107.265,-27.504 C 95.347,-51.799 67.843,-64.175 41.714,-57.299 16.502,-50.883 -1.375,-27.046 0,0"
             style="fill:#c9c9c9;fill-opacity:1;fill-rule:nonzero;stroke:none"
             id="path90" /></g><g
           id="g92"
           transform="translate(1724.5244,421.4482)"><path
             d="m 0,0 18.336,411.181 c 1.834,36.214 24.754,66.467 56.842,78.385 -10.085,3.667 -20.628,5.501 -31.172,5.501 -47.215,0 -86.179,-37.13 -88.012,-84.345 L -62.342,-0.459 c -1.375,-26.587 16.502,-50.424 42.172,-57.3 16.044,-4.125 32.547,-0.917 45.382,7.335 C 9.168,-39.423 -0.917,-20.628 0,0"
             style="fill:#b3b1b1;fill-opacity:1;fill-rule:nonzero;stroke:none"
             id="path94" /></g><g
           id="g96"
           transform="translate(1717.6484,445.2842)"><path
             d="m 0,0 c -2.75,0 -5.5,0.458 -8.251,0.917 -17.419,4.584 -27.504,22.462 -22.92,39.881 86.179,321.335 88.471,757.728 -101.764,1009.846 -100.388,132.935 -244.784,201.694 -429.058,204.444 -137.061,1.834 -259.452,-36.213 -363.508,-113.223 -83.887,-62.342 -156.313,-150.354 -215.447,-261.744 -101.763,-191.61 -128.35,-385.97 -128.809,-388.262 -2.292,-17.878 -18.794,-30.254 -36.672,-27.962 -17.877,2.292 -30.253,18.794 -27.961,36.672 0.916,8.251 28.42,208.112 135.684,410.264 63.718,119.642 142.561,214.988 234.241,283.289 115.516,85.72 251.201,128.351 402.93,126.059 205.362,-2.751 366.717,-80.22 479.94,-230.115 C 13.294,964.465 71.51,787.525 86.179,578.496 99.014,399.264 79.303,202.611 31.171,24.295 27.504,9.626 14.21,0 0,0"
             style="fill:#b3b1b1;fill-opacity:1;fill-rule:nonzero;stroke:none"
             id="path98" /></g><g
           id="g100"
           transform="translate(781.1455,1595.3994)"><path
             d="M 0,0 C -47.673,9.626 -63.259,69.676 -26.587,101.764 67.384,182.901 246.617,291.54 505.61,251.66 777.897,209.946 932.835,28.879 1007.096,-113.682 1043.31,-182.9 988.302,-264.953 910.374,-258.535 h -2.292 c -44.006,3.667 -80.219,35.755 -89.846,78.845 -16.96,79.301 -71.05,205.819 -239.282,291.539 -65.092,33.005 -138.893,44.006 -210.403,32.088 C 285.123,130.185 165.481,95.805 46.757,9.627 32.546,0.917 16.044,-3.208 0,0"
             style="fill:#c9c9c9;fill-opacity:1;fill-rule:nonzero;stroke:none"
             id="path102" /></g><g
           id="g104"
           transform="translate(1192.3262,1839.2661)"><path
             d="m 0,0 c -200.318,36.213 -360.299,-143.936 -425.392,-239.283 4.126,-1.833 8.71,-3.667 13.752,-4.584 16.044,-3.208 33.005,0.459 46.298,10.085 118.725,85.72 238.825,120.558 321.794,134.31 71.968,11.918 145.771,0.917 210.404,-32.088 168.231,-85.719 222.322,-212.237 239.283,-291.539 7.792,-36.213 34.38,-64.634 68.758,-75.177 C 429.518,-363.507 236.074,-42.63 0,0"
             style="fill:#b3b1b1;fill-opacity:1;fill-rule:nonzero;stroke:none"
             id="path106" /></g></g></g></g></svg>
